# xmcd
#
# Track frame offsets:
# 150
# 14355
# 32110
# 48310
# 62620
# 77775
# 93105
# 112860
# 128685
# 141105
# 155815
# 169525
# 189870
# 208200
# 225520
#
# Disc length: 3641 seconds
#
#
# Revision: 0
# Processed by: cddbd v1.5.1PL0 Copyright (c) Steve Scherf et al.
# Submitted via: FreeRIP 2.942 
#
DISCID=b90e370f
DTITLE=Varios - Festa de Peao - De Norte a Sul
DYEAR=1900
DGENRE=Sertanejo
TTITLE0=A Moca e o Peao
TTITLE1=Adeus Mariana
TTITLE2=Dancando Country
TTITLE3=Quem e Esse Homem
TTITLE4=Viva a Vida
TTITLE5=Toda a Panela é Boa
TTITLE6=Minha Boiada Meu Carro de Boi
TTITLE7=Doi Doi Saudade
TTITLE8=Moreninha Linda
TTITLE9=Loira do Carro Branco
TTITLE10=Ultimo Adeus
TTITLE11=Despedida de Artista
TTITLE12=O Rei do Cafe
TTITLE13=Seus Passos
TTITLE14=Versos
EXTD=
EXTT0=Carlito Baduy
EXTT1=Oswaldir e Carlos Magrao
EXTT2=Billy Nelson
EXTT3=Pedro Bento e Ze da Estrada
EXTT4=Billy Nelson
EXTT5=Xiru do Sul
EXTT6=Pedro Bento e Ze da Estrada
EXTT7=Carlito Baduy
EXTT8=Joel e Giovan
EXTT9=Os Azes do Chamame
EXTT10=Carreiro e Carreirinho
EXTT11=Vava dos 8 Baixa
EXTT12=Carreiro e Carreirinho
EXTT13=Cley Sanches
EXTT14=
PLAYORDER=
